<svg xmlns="http://www.w3.org/2000/svg" viewBox="-8 -8 74 74" class="cls-0">
  <defs><style>
    .cls-0{background:#0d0000}
    .cls-1{fill:chocolate}
    .cls-2{fill:mistyrose}
  </style></defs>
  <path class="cls-2" d="M0 31.97c0-21.51 5.28-32 16.24-32 4.94 0 8.87 2.34 10.71 6.28a29.17 29.17 0 0 1 2.1 11.46c0 1.09-.09 1.85-.17 3.44h-9.79c-.09-7.29-.09-7.29-.51-9.29s-1.59-3.24-3.34-3.24a3.31 3.31 0 0 0-2.93 2.18c-.76 2.17-.84 3.34-1.18 11.8-.16 4.6-.25 8.7-.25 11.88 0 11.13 1.18 14.9 4.69 14.9a4.25 4.25 0 0 0 3.77-2.93c.58-1.42.67-2.09.75-6.95h-3.77v-8.37h12.47v25.78h-4.35l-1.34-3.85A12.06 12.06 0 0 1 13.56 58c-4.69 0-8.87-3.26-11-8.62C.76 44.61 0 39.67 0 31.97Z"/>
  <path class="cls-1" d="M37.83 3.8h10.63v47.45h13v8.37H37.83Z" transform="translate(-2.76 -2.71)"/>
</svg>
